<svg width="252" height="36" viewBox="0 0 252 36" fill="none" xmlns="http://www.w3.org/2000/svg">
<g clip-path="url(#clip0_2226_10735)">
<path d="M0 5.36296C1.40976 3.59068 3.34777 2.34645 5.39273 1.44216C9.63173 -0.419223 14.6453 -0.409322 19.0269 1.06923C20.401 1.52467 21.7362 2.12533 23.0099 2.8019L23.6094 3.09893C24.0502 3.33985 24.5201 3.50817 24.977 3.71609C25.2006 3.7953 25.5312 3.91741 25.7581 3.99992C31.8443 6.10883 38.407 4.90421 44.4641 3.19794C45.472 2.90751 46.4864 2.60058 47.5267 2.26065C45.4428 4.88441 42.6622 6.8448 39.6904 8.31015C36.5889 9.8052 33.1245 10.6468 29.6697 10.5907C26.9863 10.5445 24.2673 9.94051 21.8237 8.7887C21.3343 8.59068 20.6894 8.20124 20.2163 7.95702C20.0607 7.87121 19.7463 7.69629 19.5908 7.60718C13.5628 4.10553 6.68906 3.26065 0 5.36296Z" fill="url(#paint0_linear_2226_10735)"/>
<path d="M-0.000238181 18.0625C1.40952 16.2935 3.34753 15.046 5.39249 14.1417C9.63149 12.2836 14.645 12.2902 19.0266 13.772C20.4007 14.2275 21.736 14.8282 23.0096 15.5047L23.6092 15.8018C24.0499 16.0427 24.5198 16.211 24.9768 16.4189C25.2004 16.4981 25.531 16.6202 25.7578 16.7027C31.8441 18.8117 38.4068 17.607 44.4639 15.9008C45.4718 15.6103 46.4861 15.3034 47.5264 14.9635C45.4426 17.5872 42.662 19.5476 39.6901 21.013C36.5887 22.508 33.1242 23.3496 29.6695 23.2935C26.9861 23.2473 24.267 22.6433 21.8235 21.4915C21.3341 21.2935 20.6892 20.9041 20.216 20.6598C20.0605 20.574 19.7461 20.3991 19.5905 20.31C13.5594 16.8084 6.68558 15.9635 -0.003479 18.0625H-0.000238181Z" fill="url(#paint1_linear_2226_10735)"/>
<path d="M-0.000238181 30.7651C1.40952 28.9961 3.34753 27.7486 5.39249 26.8443C9.63149 24.9862 14.645 24.9928 19.0266 26.4747C20.4007 26.9301 21.736 27.5308 23.0096 28.2074L23.6092 28.5044C24.0499 28.7453 24.5198 28.9136 24.9768 29.1215C25.2004 29.2008 25.531 29.3229 25.7578 29.4054C31.8441 31.5143 38.4068 30.3097 44.4639 28.6034C45.4718 28.313 46.4861 28.006 47.5264 27.6661C45.4426 30.2899 42.662 32.2503 39.6901 33.7156C36.5887 35.2107 33.1242 36.0522 29.6695 35.9961C26.9861 35.9499 24.267 35.346 21.8235 34.1942C21.3341 33.9961 20.6892 33.6067 20.216 33.3625C20.0605 33.2767 19.7461 33.1017 19.5905 33.0126C13.5594 29.511 6.68558 28.6661 -0.003479 30.7651H-0.000238181Z" fill="url(#paint2_linear_2226_10735)"/>
<path d="M60.2048 8.84169V16.1453H69.8333V20.7757H60.2048V28.4952H71.0616V33.2509H54.4686V4.08262H71.0616V8.83839H60.2048V8.84169ZM76.1626 15.3928C77.0766 13.5843 78.3275 12.1948 79.9123 11.2212C81.497 10.2476 83.2568 9.76249 85.1981 9.76249C86.6726 9.76249 88.0792 10.0892 89.4176 10.7427C90.7561 11.3961 91.8223 12.2674 92.6131 13.3499V2.37305H98.4303V33.2509H92.6131V29.8285C91.9033 30.9704 90.9052 31.8879 89.6218 32.5843C88.3384 33.2806 86.8476 33.6272 85.1559 33.6272C83.2438 33.6272 81.4938 33.1255 79.9123 32.1255C78.3275 31.1255 77.0798 29.713 76.1626 27.8912C75.2487 26.0694 74.7885 23.977 74.7885 21.6107C74.7885 19.2443 75.2455 17.2014 76.1626 15.3928ZM91.8353 18.0397C91.2876 17.0232 90.5519 16.2443 89.6218 15.7031C88.6917 15.1618 87.6967 14.8912 86.6305 14.8912C85.5643 14.8912 84.5823 15.1552 83.6814 15.6833C82.7804 16.2113 82.048 16.9836 81.4906 18.0001C80.9299 19.0166 80.6512 20.2179 80.6512 21.6107C80.6512 23.0034 80.9299 24.2179 81.4906 25.2608C82.0512 26.3037 82.7869 27.1057 83.704 27.6602C84.618 28.2179 85.5967 28.4952 86.6337 28.4952C87.6708 28.4952 88.6949 28.2245 89.625 27.68C90.5519 27.1387 91.2908 26.3598 91.8385 25.3433C92.3862 24.3268 92.6584 23.1123 92.6584 21.6932C92.6584 20.274 92.3862 19.0562 91.8385 18.043L91.8353 18.0397ZM108.532 32.4985C106.934 31.8021 105.67 30.8021 104.74 29.4952C103.81 28.1882 103.334 26.6437 103.308 24.8648H109.452C109.533 26.0628 109.951 27.0067 110.703 27.7031C111.455 28.3994 112.486 28.746 113.798 28.746C115.111 28.746 116.187 28.4192 116.952 27.7658C117.716 27.1123 118.099 26.2575 118.099 25.2014C118.099 24.34 117.84 23.6305 117.321 23.0727C116.803 22.515 116.154 22.0793 115.373 21.7592C114.596 21.4391 113.523 21.0859 112.158 20.6965C110.301 20.1387 108.791 19.5909 107.631 19.0496C106.471 18.5084 105.473 17.6866 104.64 16.5876C103.807 15.4886 103.389 14.0199 103.389 12.1849C103.389 10.4622 103.813 8.95721 104.659 7.67998C105.505 6.40275 106.694 5.41925 108.224 4.73938C109.754 4.05622 111.501 3.71628 113.468 3.71628C116.417 3.71628 118.815 4.44565 120.659 5.9077C122.503 7.36645 123.521 9.40605 123.712 12.0199H117.402C117.347 11.0199 116.932 10.1915 116.151 9.53806C115.373 8.8846 114.343 8.55787 113.059 8.55787C111.938 8.55787 111.044 8.84829 110.376 9.43245C109.705 10.0166 109.371 10.8648 109.371 11.977C109.371 12.7559 109.624 13.4027 110.13 13.9176C110.635 14.4325 111.264 14.8483 112.016 15.1684C112.768 15.4886 113.824 15.8582 115.192 16.274C117.049 16.8318 118.566 17.3862 119.739 17.944C120.912 18.5018 121.923 19.3367 122.772 20.449C123.618 21.5612 124.043 23.0232 124.043 24.8285C124.043 26.3862 123.647 27.8318 122.853 29.1684C122.059 30.5051 120.899 31.5678 119.369 32.3598C117.84 33.1519 116.022 33.548 113.918 33.548C111.925 33.548 110.126 33.2014 108.529 32.5051L108.532 32.4985ZM135.677 14.9341V26.1156C135.677 26.8945 135.862 27.4589 136.231 27.8054C136.601 28.1552 137.22 28.3268 138.095 28.3268H140.759V33.2509H137.152C132.316 33.2509 129.899 30.8582 129.899 26.0727V14.9308H127.196V10.1321H129.899V4.41595H135.677V10.1321H140.759V14.9308H135.677V14.9341ZM153.521 10.845C154.71 10.1486 156.068 9.80209 157.598 9.80209V15.9374H156.081C154.279 15.9374 152.918 16.3697 152.004 17.2311C151.091 18.0925 150.63 19.5942 150.63 21.7361V33.2509H144.894V10.1354H150.63V13.7229C151.369 12.4985 152.332 11.5381 153.518 10.845H153.521ZM182.387 23.4457H165.794C165.93 25.1156 166.504 26.4226 167.515 27.3664C168.526 28.3136 169.767 28.7856 171.245 28.7856C173.374 28.7856 174.891 27.8549 175.792 25.9902H181.979C181.324 28.2146 180.067 30.043 178.21 31.4754C176.353 32.9077 174.071 33.6239 171.368 33.6239C169.184 33.6239 167.223 33.1288 165.489 32.142C163.756 31.1552 162.401 29.7559 161.432 27.9473C160.463 26.1387 159.977 24.0529 159.977 21.6899C159.977 19.3268 160.453 17.1981 161.413 15.3895C162.369 13.581 163.707 12.1915 165.428 11.2179C167.149 10.2443 169.129 9.75919 171.368 9.75919C173.608 9.75919 175.458 10.2311 177.166 11.1783C178.874 12.1255 180.2 13.4655 181.139 15.2047C182.083 16.944 182.552 18.9407 182.552 21.1915C182.552 22.0265 182.497 22.7757 182.387 23.4457ZM176.609 19.5216C176.58 18.0199 176.048 16.8153 175.011 15.911C173.974 15.0067 172.704 14.5546 171.2 14.5546C169.78 14.5546 168.584 14.9935 167.615 15.8681C166.646 16.746 166.05 17.9605 165.833 19.5183H176.609V19.5216ZM186.626 15.3928C187.54 13.5843 188.785 12.1948 190.356 11.2212C191.928 10.2476 193.681 9.76249 195.623 9.76249C197.318 9.76249 198.799 10.109 200.069 10.8054C201.339 11.5018 202.357 12.3763 203.122 13.4325V10.1354H208.9V33.2509H203.122V29.8714C202.383 30.9572 201.365 31.8516 200.069 32.5612C198.773 33.2707 197.275 33.6239 195.584 33.6239C193.672 33.6239 191.931 33.1222 190.36 32.1222C188.788 31.1222 187.547 29.7097 186.629 27.8879C185.715 26.0661 185.255 23.9737 185.255 21.6074C185.255 19.241 185.712 17.1981 186.629 15.3895L186.626 15.3928ZM202.299 18.0397C201.751 17.0232 201.015 16.2443 200.085 15.7031C199.155 15.1618 198.16 14.8912 197.094 14.8912C196.028 14.8912 195.046 15.1552 194.145 15.6833C193.244 16.2113 192.511 16.9836 191.954 18.0001C191.393 19.0166 191.115 20.2179 191.115 21.6107C191.115 23.0034 191.393 24.2179 191.954 25.2608C192.515 26.3037 193.25 27.1057 194.168 27.6602C195.081 28.2179 196.06 28.4952 197.097 28.4952C198.134 28.4952 199.158 28.2245 200.089 27.68C201.015 27.1387 201.754 26.3598 202.302 25.3433C202.85 24.3268 203.122 23.1123 203.122 21.6932C203.122 20.274 202.85 19.0562 202.302 18.043L202.299 18.0397ZM249.44 12.4093C251.148 14.1486 252 16.5744 252 19.6899V33.2509H246.264V20.482C246.264 18.6734 245.813 17.2905 244.912 16.3301C244.011 15.3697 242.783 14.8912 241.224 14.8912C239.665 14.8912 238.431 15.3697 237.517 16.3301C236.603 17.2905 236.146 18.6734 236.146 20.482V33.2509H230.41V20.482C230.41 18.6734 229.959 17.2905 229.058 16.3301C228.157 15.3697 226.929 14.8912 225.37 14.8912C223.811 14.8912 222.534 15.3697 221.621 16.3301C220.707 17.2905 220.246 18.6734 220.246 20.482V33.2509H214.51V10.1354H220.246V12.9308C220.985 11.9572 221.932 11.1915 223.095 10.6371C224.255 10.0793 225.532 9.80209 226.926 9.80209C228.702 9.80209 230.287 10.1849 231.68 10.9506C233.074 11.7163 234.153 12.8087 234.918 14.2245C235.657 12.8912 236.726 11.8186 238.133 11.0133C239.539 10.208 241.062 9.80209 242.702 9.80209C245.489 9.80209 247.735 10.6701 249.443 12.4093H249.44Z" fill="url(#paint3_linear_2226_10735)"/>
</g>
<defs>
<linearGradient id="paint0_linear_2226_10735" x1="0" y1="5.29695" x2="47.5299" y2="5.29695" gradientUnits="userSpaceOnUse">
<stop offset="0.14" stop-color="white"/>
<stop offset="1" stop-color="white"/>
</linearGradient>
<linearGradient id="paint1_linear_2226_10735" x1="-0.000238181" y1="17.9998" x2="0.323844" y2="17.9998" gradientUnits="userSpaceOnUse">
<stop offset="0.14" stop-color="white"/>
</linearGradient>
<linearGradient id="paint2_linear_2226_10735" x1="-0.000238181" y1="30.7024" x2="0.323844" y2="30.7024" gradientUnits="userSpaceOnUse">
<stop offset="0.14" stop-color="white"/>
</linearGradient>
<linearGradient id="paint3_linear_2226_10735" x1="54.4686" y1="18.0001" x2="252" y2="18.0001" gradientUnits="userSpaceOnUse">
<stop offset="1" stop-color="white"/>
</linearGradient>
<clipPath id="clip0_2226_10735">
<rect width="252" height="36" fill="white"/>
</clipPath>
</defs>
</svg>
