<svg xmlns="http://www.w3.org/2000/svg" viewBox="0 0 656.41 158.23"><defs><style>.cls-1{fill:#fff;}</style></defs><g id="Layer_2" data-name="Layer 2"><g id="Layer_1-2" data-name="Layer 1"><path class="cls-1" d="M84.64,156.61l-.42,0-.84.07-.77.06-1,.06-.39.53q.77,0,1.53-.06h.06l1.39-.08,0-.05.07-.11c.11-.15.21-.31.32-.47ZM24.13,69.87l-.79.08a51.22,51.22,0,0,0-6.18,1.1h0l-1.52.4-.75.21q-1.05.32-2.07.66l-.9.32-.74.28-.73.28c-.48.19-1,.4-1.44.61L8.47,74l-.63.3-.75.35L6.51,75q-1.92,1-3.78,2.13h0c.7-.37,1.4-.73,2.12-1.07h0C6,75.39,7.12,74.8,8.28,74.26L8.91,74c.43-.2.86-.39,1.3-.57l.8-.33c1.29-.51,2.59-1,3.91-1.36l.67-.2.11,0,.77-.21.82-.21c1-.26,2.08-.47,3.12-.66l.78-.13.65-.11.5-.07.81-.1,1-.11.63-.06h.2Zm-5.86,59.26s0,0,0,.05l.76.89Zm43.1-42.92L61,85.88l-.1,0-1.09.41c-.21.07-.4.15-.6.23l-.59.24L58.2,87l-.28.12-.46.2c-.57.24-1.13.5-1.69.76l-.45.21-.4.2-.43.21c-.55.27-1.1.55-1.64.84l-1.13.61a64.37,64.37,0,0,1,7.49-3.08c.75-.26,1.51-.5,2.27-.73A1.14,1.14,0,0,1,61.37,86.21ZM27.18,69.66l-.51,0,1.19,0Z"/><path class="cls-1" d="M157.37,78.71A78.31,78.31,0,0,1,143.6,123.2,64.71,64.71,0,0,0,83.24,82h-.82A64.82,64.82,0,0,0,2.2,59.93,78.72,78.72,0,0,1,157.37,78.71Z"/><path class="cls-1" d="M35.64,103.42a65.78,65.78,0,0,0-15.34,28.1c-.44-.48-.87-1-1.29-1.45l-.74-.94s0,0,0,.05A78.4,78.4,0,0,1,0,81.54c0-1,.09-2,.17-2.94.84-.52,1.7-1,2.56-1.49.7-.37,1.4-.73,2.12-1.07h0C6,75.39,7.12,74.8,8.28,74.26L8.91,74c.43-.2.86-.39,1.3-.57l.8-.33c1.29-.51,2.59-1,3.91-1.36l.67-.2.11,0,.77-.21.82-.21c1-.26,2.08-.47,3.12-.66l.78-.13.65-.11.5-.07.81-.1,1-.11.63-.06h.2l.24,0,.68-.05h0l.61,0h.17l1.19,0h2.5l.64,0,1.91.11a0,0,0,0,0,0,0c.82.07,1.65.16,2.48.26h0c1.13.15,2.26.34,3.38.57l.26.05,1.21.26A50.48,50.48,0,0,1,65.12,85c-1.26.38-2.52.8-3.75,1.25L61,85.88l-.1,0-1.09.41c-.21.07-.4.15-.6.23l-.59.24L58.2,87l-.28.12-.46.2c-.57.24-1.13.5-1.69.76l-.45.21-.4.2-.43.21c-.55.27-1.1.55-1.64.84l-1.13.61a64.37,64.37,0,0,1,7.49-3.08A66,66,0,0,0,35.64,103.42Z"/><path class="cls-1" d="M124.06,119.2a48.82,48.82,0,0,1,8.24,17.08l-.46.46,0,0a78.41,78.41,0,0,1-47.58,20.47l0-.05.07-.11c.11-.15.21-.31.32-.47h0l-.42,0-.84.07-.77.06-1,.06.32-.46a65,65,0,0,0,11.67-37.34,65.64,65.64,0,0,0-3.45-21l.35,0c.67.11,1.33.22,2,.36l.39.07.76.16L95,99l.9.24.45.12.88.25.56.18c.19.06.38.11.56.18l.76.25c1.15.4,2.27.83,3.38,1.31.28.11.55.24.83.36,1,.46,2,1,3,1.49l.06,0a0,0,0,0,0,0,0l.77.42.78.46q.36.19.72.42l.6.37s0,0,0,0l.64.4,1.14.77c.53.36,1,.73,1.55,1.11l.78.6.61.48.47.38c.17.15.35.29.51.44s.44.37.66.56c1.06.93,2.08,1.9,3.06,2.93l.65.69a47.57,47.57,0,0,1,3.1,3.71c.53.63,1,1.27,1.54,1.93h0l0,0Z"/><path class="cls-1" d="M73.94,98.41a49.28,49.28,0,0,1-11.82,57h0l-.16,0a2.88,2.88,0,0,1-.4-.09,5.54,5.54,0,0,1-.56-.11l-1.46-.35c-.42-.1-.83-.21-1.25-.33a3.79,3.79,0,0,1-.53-.14c-.64-.16-1.28-.36-1.93-.55s-1.27-.4-1.9-.61l-.25-.08c-.64-.21-1.26-.44-1.89-.66l-.07,0c-.67-.25-1.33-.5-2-.77s-1.33-.55-2-.84-1.23-.54-1.84-.83l-.21-.09c-.37-.17-.73-.35-1.1-.54l-1.27-.64-.07,0-1.68-.89c-.16-.09-.34-.18-.5-.28l-1.51-.87-1.64-1c-.83-.53-1.65-1.06-2.46-1.62-.42-.28-.83-.58-1.25-.87l0,0A49.6,49.6,0,0,1,73.94,98.41Z"/><path class="cls-1" d="M24.94,69.81h-.2l-.63.06-1,.11-.81.1-.5.07-.65.11-.78.13c-1,.19-2.08.4-3.12.66l-.82.21-.77.21-.11,0-.67.2c-1.32.4-2.62.85-3.91,1.36l-.8.33c-.44.18-.87.37-1.3.57l-.63.29C7.12,74.8,6,75.39,4.87,76h0c-.72.34-1.42.7-2.12,1.07h0Q4.59,76,6.51,75l.58-.29.75-.35.63-.3L9,73.81c.48-.21,1-.42,1.44-.61l.73-.28.74-.28.9-.32q1-.34,2.07-.66l.75-.21,1.52-.4h0A51.22,51.22,0,0,1,23.34,70l.79-.08Z"/><path class="cls-1" d="M20.3,131.52l0,.09c-.42-.51-.85-1-1.26-1.54C19.43,130.56,19.86,131,20.3,131.52Z"/><path class="cls-1" d="M61.37,86.21q-1.09.41-2.16.84a64.37,64.37,0,0,0-7.49,3.08l1.13-.61c.54-.29,1.09-.57,1.64-.84l.43-.21.4-.2.45-.21c.56-.26,1.12-.52,1.69-.76l.46-.2L58.2,87l.45-.18.59-.24c.2-.08.39-.16.6-.23l1.09-.41.1,0Z"/><path class="cls-1" d="M84.64,156.61l-.31.47-.07.11-.44.05-.84.07h-.2l-.58.05-1,.06,0-.05.39-.53,1-.06.77-.06.84-.07Z"/><path class="cls-1" d="M61.48,86.32c-.76.23-1.52.47-2.27.73a64.37,64.37,0,0,0-7.49,3.08l1.13-.61c.54-.29,1.09-.57,1.64-.84l.43-.21.4-.2.45-.21c.56-.26,1.12-.52,1.69-.76l.46-.2L58.2,87l.45-.18.59-.24c.2-.08.39-.16.6-.23l1.09-.41.1,0,.34.33A1.14,1.14,0,0,0,61.48,86.32Z"/><path class="cls-1" d="M285.47,24.5v96.09h-23.4V63l-21.49,57.62H221.69L200.06,62.83v57.76h-23.4V24.5h27.65l27,66.53L258,24.5Z"/><path class="cls-1" d="M377.73,44.21v76.38H354.32v-10.4a25.6,25.6,0,0,1-9.65,8.14,29.34,29.34,0,0,1-13.48,3.08,30.21,30.21,0,0,1-15.47-3.9,26.32,26.32,0,0,1-10.4-11.29,38.47,38.47,0,0,1-3.69-17.38V44.21H324.9V85.69q0,7.66,4,11.91t10.68,4.24q6.84,0,10.81-4.24t4-11.91V44.21Z"/><path class="cls-1" d="M394.36,61.6a33.19,33.19,0,0,1,12.11-13.69,31.67,31.67,0,0,1,17.11-4.79,29.39,29.39,0,0,1,14.17,3.28A24.3,24.3,0,0,1,447.13,55V44.21h23.4v76.38h-23.4V109.78a25.28,25.28,0,0,1-9.52,8.62,29.38,29.38,0,0,1-14.16,3.29,31.06,31.06,0,0,1-17-4.86A33.53,33.53,0,0,1,394.36,103a46,46,0,0,1-4.45-20.73A45.59,45.59,0,0,1,394.36,61.6Zm47.91,7a16.44,16.44,0,0,0-23.68-.07q-4.86,5-4.86,13.76t4.86,13.89a16.3,16.3,0,0,0,23.68.07q4.86-5.07,4.86-13.83T442.27,68.58Z"/><path class="cls-1" d="M530.69,46.4A24.2,24.2,0,0,1,540.06,55V44.21h23.41v76.25a43,43,0,0,1-4.17,19.09,31.92,31.92,0,0,1-12.73,13.62q-8.57,5.06-21.29,5.06-17,0-27.51-8t-12-21.7h23.14a11.06,11.06,0,0,0,5.2,6.91A18.94,18.94,0,0,0,524.19,138q7.24,0,11.56-4.18t4.31-13.34V109.64a25.83,25.83,0,0,1-9.44,8.69,28.47,28.47,0,0,1-14.1,3.36,31.31,31.31,0,0,1-17.11-4.86A33.53,33.53,0,0,1,487.3,103a46,46,0,0,1-4.45-20.73A45.59,45.59,0,0,1,487.3,61.6a33.19,33.19,0,0,1,12.11-13.69,31.67,31.67,0,0,1,17.11-4.79A29.39,29.39,0,0,1,530.69,46.4Zm4.52,22.18a16.44,16.44,0,0,0-23.68-.07q-4.86,5-4.86,13.76t4.86,13.89a16.3,16.3,0,0,0,23.68.07q4.85-5.07,4.85-13.83T535.21,68.58Z"/><path class="cls-1" d="M580.24,61.6a33.19,33.19,0,0,1,12.11-13.69,31.65,31.65,0,0,1,17.11-4.79,29.41,29.41,0,0,1,14.17,3.28A24.27,24.27,0,0,1,633,55V44.21h23.41v76.38H633V109.78a25.24,25.24,0,0,1-9.51,8.62,29.39,29.39,0,0,1-14.17,3.29,31.05,31.05,0,0,1-17-4.86A33.53,33.53,0,0,1,580.24,103a46,46,0,0,1-4.45-20.73A45.59,45.59,0,0,1,580.24,61.6Zm47.9,7a16.44,16.44,0,0,0-23.68-.07q-4.86,5-4.85,13.76t4.85,13.89a16.3,16.3,0,0,0,23.68.07Q633,91.16,633,82.4T628.14,68.58Z"/><rect class="cls-1" x="402.45" y="17.78" width="66.41" height="13.46"/></g></g></svg>