<svg width="5265" height="833" viewBox="0 0 5265 833" fill="none" xmlns="http://www.w3.org/2000/svg">
<path d="M152.886 172.406V367.065H409.509V490.476H152.886V696.219H442.245V822.972H0V45.5643H442.245V172.318H152.886V172.406ZM578.201 347.01C602.559 298.807 635.9 261.775 678.138 235.826C720.376 209.877 767.278 196.947 819.017 196.947C858.318 196.947 895.806 205.655 931.479 223.072C967.152 240.488 995.57 263.71 1016.65 292.562V0H1171.69V822.972H1016.65V731.756C997.729 762.191 971.125 786.644 936.921 805.204C902.716 823.764 862.983 833 817.894 833C766.933 833 720.289 819.63 678.138 792.977C635.9 766.325 602.645 728.677 578.201 680.122C553.843 631.567 541.578 575.799 541.578 512.73C541.578 449.662 553.756 395.213 578.201 347.01ZM995.915 417.556C981.318 390.463 961.71 369.704 936.921 355.278C912.131 340.853 885.613 333.64 857.195 333.64C828.778 333.64 802.606 340.677 778.593 354.751C754.581 368.825 735.06 389.408 720.203 416.5C705.26 443.592 697.832 475.611 697.832 512.73C697.832 549.85 705.26 582.22 720.203 610.016C735.146 637.812 754.753 659.187 779.198 673.965C803.556 688.83 829.642 696.219 857.282 696.219C884.922 696.219 912.217 689.006 937.007 674.493C961.71 660.067 981.404 639.308 996.002 612.215C1010.6 585.123 1017.85 552.753 1017.85 514.93C1017.85 477.106 1010.6 444.648 996.002 417.644L995.915 417.556ZM1440.92 802.917C1398.34 784.357 1364.65 757.705 1339.86 722.872C1315.07 688.039 1302.38 646.872 1301.69 599.461H1465.46C1467.61 631.391 1478.76 656.548 1498.8 675.108C1518.84 693.668 1546.3 702.904 1581.29 702.904C1616.27 702.904 1644.94 694.196 1665.33 676.779C1685.71 659.363 1695.91 636.581 1695.91 608.433C1695.91 585.475 1689 566.563 1675.18 551.698C1661.36 536.832 1644.08 525.221 1623.26 516.689C1602.53 508.156 1573.94 498.744 1537.58 488.365C1488.09 473.499 1447.83 458.898 1416.91 444.472C1385.99 430.046 1359.39 408.144 1337.19 378.852C1314.99 349.561 1303.85 310.418 1303.85 261.511C1303.85 215.595 1315.16 175.484 1337.71 141.443C1360.25 107.402 1391.95 81.1889 1432.72 63.0687C1473.49 44.8606 1520.04 35.8005 1572.48 35.8005C1651.08 35.8005 1715 55.2401 1764.14 94.2073C1813.29 133.086 1840.41 187.447 1845.51 257.113H1677.34C1675.87 230.46 1664.81 208.382 1643.99 190.965C1623.26 173.549 1595.8 164.841 1561.59 164.841C1531.71 164.841 1507.87 172.581 1490.07 188.151C1472.19 203.72 1463.3 226.326 1463.3 255.969C1463.3 276.728 1470.03 293.969 1483.51 307.691C1496.98 321.413 1513.74 332.496 1533.78 341.029C1553.82 349.561 1581.98 359.413 1618.43 370.496C1667.92 385.361 1708.34 400.139 1739.61 415.005C1770.88 429.87 1797.83 452.125 1820.46 481.768C1843 511.411 1854.32 550.378 1854.32 598.493C1854.32 640.011 1843.78 678.539 1822.62 714.163C1801.46 749.788 1770.54 778.112 1729.77 799.223C1689 820.334 1640.54 830.889 1584.48 830.889C1531.36 830.889 1483.42 821.653 1440.84 803.093L1440.92 802.917ZM2164.41 334.783V632.798C2164.41 653.558 2169.33 668.599 2179.18 677.835C2189.03 687.159 2205.52 691.733 2228.85 691.733H2299.85V822.972H2203.71C2074.84 822.972 2010.4 759.2 2010.4 631.655V334.695H1938.36V206.799H2010.4V54.4485H2164.41V206.799H2299.85V334.695H2164.41V334.783ZM2640 225.798C2671.7 207.238 2707.89 198.002 2748.66 198.002V361.524H2708.23C2660.21 361.524 2623.93 373.047 2599.57 396.005C2575.21 418.963 2562.95 458.986 2562.95 516.073V822.972H2410.06V206.887H2562.95V302.501C2582.64 269.867 2608.3 244.27 2639.91 225.798H2640ZM3409.35 561.637H2967.1C2970.73 606.146 2986.02 640.979 3012.97 666.136C3039.92 691.381 3073 703.96 3112.39 703.96C3169.14 703.96 3209.56 679.154 3233.57 629.456H3398.46C3381.02 688.742 3347.5 737.473 3298.01 775.649C3248.52 813.824 3187.71 832.912 3115.67 832.912C3057.45 832.912 3005.19 819.718 2958.98 793.417C2912.77 767.116 2876.67 729.821 2850.84 681.617C2825.01 633.414 2812.06 577.822 2812.06 514.842C2812.06 451.861 2824.75 395.125 2850.32 346.922C2875.8 298.719 2911.48 261.687 2957.34 235.738C3003.21 209.789 3055.98 196.859 3115.67 196.859C3175.36 196.859 3224.68 209.437 3270.2 234.683C3315.72 259.928 3351.04 295.64 3376.09 341.996C3401.23 388.352 3413.75 441.569 3413.75 501.559C3413.75 523.814 3412.28 543.781 3409.35 561.637ZM3255.34 457.051C3254.56 417.028 3240.4 384.922 3212.76 360.82C3185.12 336.718 3151.26 324.668 3111.18 324.668C3073.34 324.668 3041.47 336.367 3015.65 359.677C2989.82 383.074 2973.93 415.444 2968.14 456.963H3255.34V457.051ZM3522.33 347.01C3546.69 298.807 3579.85 261.775 3621.75 235.826C3663.64 209.877 3710.37 196.947 3762.11 196.947C3807.28 196.947 3846.76 206.183 3880.62 224.743C3914.47 243.303 3941.6 266.613 3961.98 294.761V206.887H4115.99V822.972H3961.98V732.899C3942.29 761.839 3915.17 785.676 3880.62 804.588C3846.06 823.5 3806.16 832.912 3761.07 832.912C3710.11 832.912 3663.72 819.542 3621.83 792.889C3579.94 766.237 3546.86 728.589 3522.41 680.034C3498.06 631.479 3485.79 575.711 3485.79 512.642C3485.79 449.574 3497.97 395.125 3522.41 346.922L3522.33 347.01ZM3940.04 417.556C3925.44 390.463 3905.84 369.704 3881.05 355.278C3856.26 340.853 3829.74 333.64 3801.32 333.64C3772.9 333.64 3746.73 340.677 3722.72 354.751C3698.71 368.825 3679.19 389.408 3664.33 416.5C3649.39 443.592 3641.96 475.611 3641.96 512.73C3641.96 549.85 3649.39 582.22 3664.33 610.016C3679.27 637.812 3698.88 659.187 3723.32 673.965C3747.68 688.83 3773.77 696.219 3801.41 696.219C3829.05 696.219 3856.34 689.006 3881.13 674.493C3905.84 660.067 3925.53 639.308 3940.13 612.215C3954.73 585.123 3961.98 552.753 3961.98 514.93C3961.98 477.106 3954.73 444.648 3940.13 417.644L3940.04 417.556ZM5196.47 267.492C5241.99 313.848 5264.7 378.5 5264.7 461.537V822.972H5111.82V482.647C5111.82 434.444 5099.81 397.588 5075.8 371.991C5051.79 346.394 5019.05 333.64 4977.5 333.64C4935.96 333.64 4903.05 346.394 4878.69 371.991C4854.33 397.588 4842.15 434.444 4842.15 482.647V822.972H4689.27V482.647C4689.27 434.444 4677.26 397.588 4653.25 371.991C4629.24 346.394 4596.5 333.64 4554.95 333.64C4513.41 333.64 4479.37 346.394 4455.02 371.991C4430.66 397.588 4418.39 434.444 4418.39 482.647V822.972H4265.51V206.887H4418.39V281.39C4438.09 255.442 4463.31 235.034 4494.32 220.257C4525.24 205.391 4559.27 198.002 4596.41 198.002C4643.75 198.002 4685.98 208.206 4723.13 228.613C4760.27 249.02 4789.03 278.136 4809.42 315.871C4829.11 280.335 4857.61 251.747 4895.1 230.284C4932.59 208.822 4973.19 198.002 5016.89 198.002C5091.17 198.002 5151.03 221.136 5196.55 267.492H5196.47Z" fill="url(#paint0_linear_2173_10025)"/>
<defs>
<linearGradient id="paint0_linear_2173_10025" x1="0" y1="416.5" x2="5264.7" y2="416.5" gradientUnits="userSpaceOnUse">
<stop offset="1" stop-color="white"/>
</linearGradient>
</defs>
</svg>
